<mxfile host="app.diagrams.net" agent="Mozilla/5.0 (X11; Ubuntu; Linux x86_64; rv:132.0) Gecko/20100101 Firefox/132.0" version="24.8.6">
  <diagram name="Page-1" id="G8ma9OdKeEpSYpST-Ilm">
    <mxGraphModel dx="1364" dy="795" grid="0" gridSize="10" guides="1" tooltips="1" connect="1" arrows="1" fold="1" page="1" pageScale="1" pageWidth="850" pageHeight="1100" math="0" shadow="0">
      <root>
        <mxCell id="0" />
        <mxCell id="1" parent="0" />
        <mxCell id="Bf1wyzITaJjb_23oQrth-1" value="Fast API Micro Service" style="rounded=0;whiteSpace=wrap;html=1;fillColor=#f8cecc;strokeColor=#b85450;" vertex="1" parent="1">
          <mxGeometry x="177" y="153" width="231" height="69" as="geometry" />
        </mxCell>
        <mxCell id="Bf1wyzITaJjb_23oQrth-2" value="Model Training" style="rounded=1;whiteSpace=wrap;html=1;fillColor=#fff2cc;strokeColor=#d6b656;" vertex="1" parent="1">
          <mxGeometry x="43" y="327" width="120" height="51" as="geometry" />
        </mxCell>
        <mxCell id="Bf1wyzITaJjb_23oQrth-3" value="Model Evaluating" style="rounded=1;whiteSpace=wrap;html=1;fillColor=#fff2cc;strokeColor=#d6b656;" vertex="1" parent="1">
          <mxGeometry x="276" y="327" width="120" height="51" as="geometry" />
        </mxCell>
        <mxCell id="Bf1wyzITaJjb_23oQrth-4" value="Inference" style="rounded=1;whiteSpace=wrap;html=1;fillColor=#fff2cc;strokeColor=#d6b656;" vertex="1" parent="1">
          <mxGeometry x="509" y="318" width="120" height="51" as="geometry" />
        </mxCell>
        <mxCell id="Bf1wyzITaJjb_23oQrth-5" value="MongoDB" style="shape=cylinder3;whiteSpace=wrap;html=1;boundedLbl=1;backgroundOutline=1;size=15;fillColor=#d5e8d4;strokeColor=#82b366;" vertex="1" parent="1">
          <mxGeometry x="298" y="511" width="96" height="102" as="geometry" />
        </mxCell>
        <mxCell id="Bf1wyzITaJjb_23oQrth-6" value="FrontEnd(Streamlit)" style="rounded=0;whiteSpace=wrap;html=1;fillColor=#dae8fc;strokeColor=#6c8ebf;" vertex="1" parent="1">
          <mxGeometry x="635" y="62" width="181" height="76" as="geometry" />
        </mxCell>
        <mxCell id="Bf1wyzITaJjb_23oQrth-7" value="" style="curved=1;endArrow=classic;html=1;rounded=0;exitX=0;exitY=1;exitDx=0;exitDy=0;" edge="1" parent="1" source="Bf1wyzITaJjb_23oQrth-1">
          <mxGeometry width="50" height="50" relative="1" as="geometry">
            <mxPoint x="122" y="252" as="sourcePoint" />
            <mxPoint x="117" y="323" as="targetPoint" />
            <Array as="points">
              <mxPoint x="156" y="246" />
            </Array>
          </mxGeometry>
        </mxCell>
        <mxCell id="Bf1wyzITaJjb_23oQrth-8" value="" style="curved=1;endArrow=classic;html=1;rounded=0;exitX=0.593;exitY=1;exitDx=0;exitDy=0;exitPerimeter=0;" edge="1" parent="1" source="Bf1wyzITaJjb_23oQrth-1">
          <mxGeometry width="50" height="50" relative="1" as="geometry">
            <mxPoint x="317" y="225" as="sourcePoint" />
            <mxPoint x="329" y="327" as="targetPoint" />
            <Array as="points" />
          </mxGeometry>
        </mxCell>
        <mxCell id="Bf1wyzITaJjb_23oQrth-9" value="" style="curved=1;endArrow=classic;html=1;rounded=0;entryX=0.083;entryY=0;entryDx=0;entryDy=0;entryPerimeter=0;" edge="1" parent="1" target="Bf1wyzITaJjb_23oQrth-4">
          <mxGeometry width="50" height="50" relative="1" as="geometry">
            <mxPoint x="388" y="224" as="sourcePoint" />
            <mxPoint x="359" y="322" as="targetPoint" />
            <Array as="points" />
          </mxGeometry>
        </mxCell>
        <mxCell id="Bf1wyzITaJjb_23oQrth-10" value="" style="curved=1;endArrow=classic;html=1;rounded=0;exitX=0;exitY=1;exitDx=0;exitDy=0;" edge="1" parent="1">
          <mxGeometry width="50" height="50" relative="1" as="geometry">
            <mxPoint x="115" y="378" as="sourcePoint" />
            <mxPoint x="294" y="539" as="targetPoint" />
            <Array as="points">
              <mxPoint x="94" y="402" />
            </Array>
          </mxGeometry>
        </mxCell>
        <mxCell id="Bf1wyzITaJjb_23oQrth-11" value="" style="curved=1;endArrow=classic;html=1;rounded=0;exitX=0.5;exitY=1;exitDx=0;exitDy=0;" edge="1" parent="1" source="Bf1wyzITaJjb_23oQrth-3">
          <mxGeometry width="50" height="50" relative="1" as="geometry">
            <mxPoint x="351" y="378" as="sourcePoint" />
            <mxPoint x="346" y="506" as="targetPoint" />
            <Array as="points" />
          </mxGeometry>
        </mxCell>
        <mxCell id="Bf1wyzITaJjb_23oQrth-12" value="" style="curved=1;endArrow=classic;html=1;rounded=0;exitX=0;exitY=1;exitDx=0;exitDy=0;" edge="1" parent="1">
          <mxGeometry width="50" height="50" relative="1" as="geometry">
            <mxPoint x="248" y="222" as="sourcePoint" />
            <mxPoint x="317" y="511" as="targetPoint" />
            <Array as="points">
              <mxPoint x="227" y="246" />
              <mxPoint x="243" y="382" />
            </Array>
          </mxGeometry>
        </mxCell>
        <mxCell id="Bf1wyzITaJjb_23oQrth-13" value="" style="curved=1;endArrow=classic;html=1;rounded=0;entryX=1;entryY=0.5;entryDx=0;entryDy=0;entryPerimeter=0;" edge="1" parent="1" target="Bf1wyzITaJjb_23oQrth-5">
          <mxGeometry width="50" height="50" relative="1" as="geometry">
            <mxPoint x="712" y="138" as="sourcePoint" />
            <mxPoint x="484" y="585" as="targetPoint" />
            <Array as="points">
              <mxPoint x="747" y="444" />
            </Array>
          </mxGeometry>
        </mxCell>
        <mxCell id="Bf1wyzITaJjb_23oQrth-14" value="Trigger Training" style="text;html=1;align=center;verticalAlign=middle;whiteSpace=wrap;rounded=0;" vertex="1" parent="1">
          <mxGeometry x="76" y="257" width="60" height="30" as="geometry" />
        </mxCell>
        <mxCell id="Bf1wyzITaJjb_23oQrth-15" value="Trigger Evaluating" style="text;html=1;align=center;verticalAlign=middle;whiteSpace=wrap;rounded=0;" vertex="1" parent="1">
          <mxGeometry x="322" y="249" width="60" height="30" as="geometry" />
        </mxCell>
        <mxCell id="Bf1wyzITaJjb_23oQrth-16" value="Retrieve Data collections" style="text;html=1;align=center;verticalAlign=middle;whiteSpace=wrap;rounded=0;" vertex="1" parent="1">
          <mxGeometry x="173" y="269" width="60" height="30" as="geometry" />
        </mxCell>
        <mxCell id="Bf1wyzITaJjb_23oQrth-17" value="Trigger Predicting" style="text;html=1;align=center;verticalAlign=middle;whiteSpace=wrap;rounded=0;" vertex="1" parent="1">
          <mxGeometry x="460" y="235" width="60" height="30" as="geometry" />
        </mxCell>
        <mxCell id="Bf1wyzITaJjb_23oQrth-18" value="Fetch the Metrics" style="text;html=1;align=center;verticalAlign=middle;whiteSpace=wrap;rounded=0;" vertex="1" parent="1">
          <mxGeometry x="710" y="267" width="60" height="30" as="geometry" />
        </mxCell>
        <mxCell id="Bf1wyzITaJjb_23oQrth-19" value="Store Training Details" style="text;html=1;align=center;verticalAlign=middle;whiteSpace=wrap;rounded=0;" vertex="1" parent="1">
          <mxGeometry x="79" y="433" width="60" height="30" as="geometry" />
        </mxCell>
        <mxCell id="Bf1wyzITaJjb_23oQrth-20" value="Store Evaluate metrics" style="text;html=1;align=center;verticalAlign=middle;whiteSpace=wrap;rounded=0;" vertex="1" parent="1">
          <mxGeometry x="350" y="413" width="60" height="30" as="geometry" />
        </mxCell>
      </root>
    </mxGraphModel>
  </diagram>
</mxfile>
